<?xml version="1.0" standalone="no"?>
<!DOCTYPE svg PUBLIC "-//W3C//DTD SVG 20010904//EN"
 "http://www.w3.org/TR/2001/REC-SVG-20010904/DTD/svg10.dtd">
<svg version="1.0" xmlns="http://www.w3.org/2000/svg"
 width="1536.000000pt" height="1536.000000pt" viewBox="0 0 1536.000000 1536.000000"
 preserveAspectRatio="xMidYMid meet">
<metadata>
Created by potrace 1.14, written by Peter Selinger 2001-2017
</metadata>
<g transform="translate(0.000000,1536.000000) scale(0.100000,-0.100000)"
fill="#000000" stroke="none">
<path d="M3216 12138 c5 -9 23 -31 39 -50 17 -18 43 -51 60 -73 16 -21 36 -46
45 -55 9 -9 29 -34 45 -55 17 -22 32 -42 35 -45 3 -3 57 -66 120 -140 63 -74
121 -142 129 -151 9 -9 27 -29 40 -45 29 -35 140 -161 161 -184 8 -9 45 -50
81 -91 345 -385 764 -813 1169 -1189 62 -58 123 -114 134 -125 12 -11 52 -46
89 -78 37 -33 83 -74 102 -93 20 -19 37 -34 39 -34 6 0 110 -96 198 -181 56
-55 88 -94 88 -108 0 -11 4 -21 9 -21 5 0 8 -24 7 -54 -2 -41 -9 -63 -30 -90
-58 -76 -188 -139 -356 -172 -94 -19 -187 3 -239 55 -35 35 -131 166 -131 178
0 7 -4 13 -8 13 -5 0 -18 17 -29 38 -91 165 -237 400 -257 414 -6 4 -8 8 -4 8
7 0 -107 179 -131 207 -6 7 -11 14 -11 17 0 3 -40 66 -90 140 -49 75 -90 139
-90 141 0 3 -5 11 -10 18 -6 7 -39 55 -73 107 -34 52 -65 97 -69 98 -5 2 -8 8
-8 14 0 9 -56 96 -69 108 -3 3 -14 18 -23 35 -23 41 -42 44 -21 3 10 -18 21
-34 26 -36 4 -2 7 -10 7 -17 0 -7 3 -15 8 -17 4 -1 18 -25 32 -53 14 -27 28
-52 31 -55 3 -3 11 -20 18 -37 8 -18 17 -33 21 -33 4 0 10 -8 13 -17 3 -10 21
-45 40 -78 54 -96 138 -245 170 -305 16 -30 33 -59 37 -65 7 -9 32 -54 103
-185 27 -49 47 -85 84 -145 79 -132 117 -243 116 -340 -1 -59 -7 -110 -13
-110 -3 0 -11 -42 -17 -85 -3 -25 -8 -47 -12 -50 -3 -3 -14 -21 -24 -40 -10
-19 -40 -60 -67 -90 -67 -75 -66 -73 -80 -101 -7 -13 -16 -26 -21 -29 -38 -25
-162 -380 -144 -410 3 -6 2 -10 -3 -10 -5 0 -9 -6 -9 -12 -1 -7 -4 -33 -8 -58
-3 -25 -8 -60 -10 -79 -3 -19 -7 -50 -11 -70 -3 -20 -7 -47 -9 -61 -6 -53 -16
-108 -25 -138 -5 -18 -7 -32 -4 -32 3 0 0 -8 -5 -17 -5 -10 -11 -31 -14 -48
-7 -37 -28 -103 -56 -175 -26 -65 -93 -213 -101 -220 -5 -5 -15 -22 -58 -99
-23 -42 -178 -276 -202 -304 -15 -18 -62 -80 -85 -112 -11 -15 -28 -35 -37
-44 -10 -8 -18 -19 -18 -24 0 -4 -9 -18 -21 -30 -12 -12 -33 -38 -48 -57 -14
-19 -33 -42 -41 -51 -8 -10 -20 -24 -25 -31 -32 -41 -82 -105 -93 -118 -20
-22 -104 -141 -125 -175 -24 -39 -118 -232 -121 -248 -2 -7 -8 -30 -14 -52
-39 -139 -47 -432 -16 -590 3 -16 7 -39 8 -50 2 -11 6 -27 9 -35 4 -8 8 -26
11 -40 22 -125 139 -391 239 -542 20 -30 37 -58 37 -62 0 -4 9 -16 20 -28 11
-12 20 -28 20 -35 0 -7 5 -13 10 -13 6 0 10 -6 10 -13 0 -7 9 -23 20 -35 12
-12 18 -22 15 -22 -3 0 7 -19 22 -42 45 -68 102 -188 117 -248 8 -30 19 -54
25 -52 6 1 11 -3 11 -9 0 -5 4 -8 9 -5 5 3 26 8 46 12 51 8 74 12 93 18 9 3
28 7 42 10 14 3 68 16 120 30 52 14 96 23 99 20 2 -2 13 3 23 13 10 9 18 13
18 10 0 -3 18 0 40 8 22 8 40 11 40 7 0 -4 4 -2 8 3 4 6 39 21 77 34 39 14 93
34 120 46 28 13 52 23 55 23 12 1 202 104 256 138 142 90 302 234 360 324 33
52 66 120 57 120 -3 0 -1 6 4 13 14 18 18 69 18 217 0 119 -3 141 -23 189 -59
135 -164 241 -402 406 -47 33 -90 64 -97 70 -21 17 -37 30 -78 60 -46 35 -148
136 -187 185 -35 44 -106 186 -112 222 -3 15 -7 31 -10 36 -15 24 -22 183 -12
257 13 90 75 267 137 388 10 21 19 44 19 52 0 8 5 15 10 15 6 0 10 4 10 9 0 5
15 42 34 83 151 327 189 470 220 833 13 141 17 171 36 247 21 85 52 141 108
194 36 34 107 73 147 79 11 2 45 8 75 14 30 5 73 13 95 16 128 17 266 54 369
97 185 78 371 265 411 413 5 17 9 32 10 35 4 14 18 162 20 207 1 44 -3 57 -29
89 -60 74 -235 243 -490 474 -33 30 -76 70 -96 87 -19 18 -47 43 -61 55 -135
120 -167 149 -210 188 -27 25 -65 59 -85 75 -19 17 -53 46 -74 65 -98 89 -120
109 -120 106 0 -2 -33 27 -72 65 -40 38 -76 69 -80 69 -4 0 -22 15 -40 33 -18
17 -67 61 -108 97 -41 35 -77 67 -80 70 -3 3 -39 34 -80 69 -41 36 -79 70 -85
75 -5 6 -35 31 -65 56 -30 25 -62 52 -70 60 -9 8 -40 35 -69 60 -29 25 -70 61
-91 80 -21 19 -49 44 -63 55 -14 11 -42 36 -64 55 -21 19 -83 73 -138 120 -55
46 -105 89 -111 95 -6 5 -33 29 -60 52 -27 23 -59 50 -70 60 -12 10 -45 38
-74 63 -29 25 -62 53 -74 63 -11 10 -41 36 -66 57 -25 21 -56 48 -70 60 -14
12 -42 36 -64 53 -21 18 -43 37 -50 42 -6 6 -20 17 -30 25 -18 14 -19 13 -10
-2z m714 -6183 c93 -48 141 -168 110 -274 -24 -86 -106 -154 -182 -153 -44 1
-101 34 -116 67 -11 23 -7 85 6 94 15 12 42 73 42 96 0 14 -11 30 -27 41 -16
10 -33 22 -39 28 -39 41 -16 94 51 118 31 11 119 1 155 -17z"/>
<path d="M5795 11520 c-11 -4 -24 -5 -29 -2 -5 3 -6 0 -2 -6 6 -9 45 -18 121
-28 11 -1 20 -3 20 -4 0 -2 9 -4 20 -5 30 -3 154 -33 208 -49 26 -8 47 -13 47
-10 0 3 10 -1 23 -8 12 -7 24 -13 27 -13 3 0 21 -6 40 -14 19 -7 48 -19 65
-25 107 -41 401 -216 471 -281 6 -5 35 -30 65 -54 66 -55 301 -290 349 -350
19 -24 47 -58 63 -75 15 -17 59 -71 98 -121 40 -49 76 -91 80 -93 5 -2 9 -8 9
-14 0 -5 19 -33 43 -62 23 -29 53 -67 67 -86 14 -18 32 -41 40 -50 8 -10 22
-28 30 -40 8 -12 20 -28 25 -34 6 -6 29 -33 51 -61 188 -237 393 -456 533
-568 46 -37 157 -113 196 -134 22 -11 56 -30 75 -40 19 -11 60 -29 90 -42 30
-12 64 -26 75 -31 65 -29 316 -103 323 -95 2 2 13 0 24 -6 19 -10 62 -20 101
-22 9 -1 17 -4 17 -7 0 -3 12 -5 28 -6 15 0 65 -6 112 -13 47 -7 101 -15 120
-17 19 -1 62 -6 95 -9 33 -4 87 -8 120 -11 33 -2 92 -6 130 -9 39 -2 115 -7
170 -10 55 -3 125 -8 155 -11 30 -2 80 -6 110 -8 54 -4 188 -22 240 -32 14 -3
38 -7 53 -10 16 -2 33 -6 38 -10 5 -3 21 -8 36 -10 15 -3 31 -8 37 -12 6 -3
19 -8 29 -9 10 -2 37 -13 60 -25 23 -12 45 -22 48 -23 3 0 37 -20 75 -44 88
-57 205 -175 269 -274 50 -76 66 -93 60 -59 -2 9 -4 17 -5 17 -1 0 -3 16 -5
35 -6 55 -13 90 -30 155 -9 33 -18 65 -19 70 -2 6 -7 19 -11 30 -4 11 -20 53
-36 92 -33 85 -97 217 -139 288 -16 28 -35 61 -42 75 -7 14 -18 31 -25 38 -7
7 -13 19 -13 27 0 7 -7 15 -15 19 -8 3 -15 12 -15 19 0 8 -9 22 -20 32 -11 10
-20 22 -20 27 0 5 -6 16 -12 23 -18 20 -29 34 -63 80 -17 22 -40 51 -53 65
-12 14 -39 44 -60 68 l-39 43 -17 -73 c-9 -40 -19 -86 -22 -102 -9 -46 -53
-165 -86 -230 -29 -57 -98 -165 -98 -152 0 3 -12 -7 -27 -22 -107 -110 -275
-54 -300 99 -3 19 9 58 35 117 67 147 76 195 76 392 0 133 -6 206 -20 271 -3
13 -8 42 -11 63 -4 28 -17 50 -46 77 -22 22 -46 39 -53 39 -8 0 -14 5 -14 10
0 6 -5 10 -11 10 -6 0 -29 13 -52 28 -23 15 -73 43 -112 62 -38 19 -73 40 -77
45 -4 6 -8 6 -8 1 0 -5 -9 -1 -20 9 -11 10 -20 16 -20 12 0 -3 -26 7 -57 22
-48 23 -123 52 -283 109 -18 7 -138 41 -163 47 -10 2 -26 6 -35 9 -9 3 -33 8
-52 12 -42 7 -50 9 -70 17 -8 3 -36 8 -61 12 -25 3 -57 8 -70 10 -13 2 -42 7
-64 10 -22 4 -53 8 -70 10 -16 2 -64 7 -105 11 -103 10 -465 10 -575 0 -154
-14 -174 -17 -250 -30 -38 -6 -113 -17 -142 -21 -16 -1 -35 13 -70 53 -27 31
-68 77 -93 102 -25 26 -64 67 -86 91 -34 36 -95 93 -217 205 -7 6 -57 45 -112
87 -55 42 -104 80 -110 85 -22 17 -166 102 -175 102 -4 0 -10 3 -12 8 -7 17
-255 122 -348 147 -161 43 -298 66 -407 69 -29 0 -53 3 -53 6 0 7 -115 4 -127
-3 -6 -4 -13 -3 -15 2 -1 4 -12 5 -23 1z"/>
<path d="M10263 11293 c-6 -16 -23 -56 -37 -89 -14 -34 -28 -72 -30 -85 -3
-13 -5 -25 -7 -26 -2 -3 -2 -5 -12 -48 -6 -28 -14 -81 -22 -150 -2 -16 -7 -70
-10 -120 -4 -49 -9 -103 -10 -120 -2 -16 -3 -38 -4 -47 -2 -25 -29 -47 -51
-42 -11 2 -29 6 -39 8 -11 3 -28 9 -39 15 -11 6 -22 7 -26 4 -3 -3 -6 -1 -6 5
0 7 -3 11 -7 10 -10 -2 -48 10 -88 28 -39 17 -234 79 -350 110 -49 14 -97 29
-106 34 -17 9 -29 4 -29 -12 0 -4 3 -7 8 -6 4 1 39 -13 77 -31 161 -76 260
-125 265 -130 3 -3 27 -17 54 -31 134 -67 314 -206 352 -271 47 -81 73 -156
90 -259 4 -19 9 -153 11 -298 5 -259 5 -263 -20 -340 -14 -42 -28 -85 -32 -94
-4 -11 -3 -18 5 -18 6 0 8 5 5 10 -3 6 -2 10 2 10 19 0 90 176 112 275 21 100
32 200 36 350 2 61 6 128 10 150 7 49 32 78 60 70 11 -3 25 -7 32 -9 7 -1 20
-10 31 -19 10 -9 22 -17 25 -17 4 0 15 -7 24 -15 10 -8 47 -37 83 -65 87 -68
87 -68 150 -120 86 -71 101 -83 129 -110 15 -14 47 -43 71 -65 l43 -40 -34 45
c-19 25 -37 47 -40 50 -3 3 -12 15 -20 27 -16 22 -102 122 -156 181 -18 19
-33 39 -33 44 0 5 -4 6 -10 3 -5 -3 -10 -2 -10 2 0 5 -52 63 -116 128 -165
171 -214 228 -260 303 -23 37 -40 69 -39 70 2 2 -3 22 -10 43 -8 22 -16 56
-19 77 -3 20 -7 53 -11 72 -15 93 -21 178 -19 267 2 113 8 157 31 233 21 71
23 80 14 80 -3 0 -12 -12 -18 -27z"/>
<path d="M5734 11213 c-19 -121 -4 -406 28 -528 6 -22 12 -51 15 -65 8 -40 11
-55 13 -55 1 0 3 -10 6 -22 6 -34 69 -211 100 -283 59 -137 143 -281 237 -404
27 -37 170 -179 210 -209 16 -12 42 -32 57 -44 15 -13 33 -23 39 -23 6 0 11
-4 11 -9 0 -12 194 -107 255 -124 28 -8 83 -15 122 -15 125 0 142 41 63 156
-22 33 -40 64 -40 70 0 6 -4 12 -8 14 -13 5 -155 268 -146 268 3 0 0 8 -5 19
-10 19 -65 219 -82 301 -17 83 -20 95 -40 175 -11 44 -22 87 -24 95 -11 49
-18 76 -24 85 -3 6 -6 15 -7 20 -1 6 -16 47 -33 90 -80 199 -191 326 -361 411
-68 34 -188 81 -223 88 -6 2 -30 8 -52 13 -106 29 -103 30 -111 -24z"/>
<path d="M4120 10756 c0 -2 7 -7 16 -10 8 -3 12 -2 9 4 -6 10 -25 14 -25 6z"/>
<path d="M8308 9103 c-6 -25 -2 -300 6 -343 3 -19 8 -46 11 -60 3 -14 8 -41
11 -60 4 -19 11 -41 17 -47 5 -7 7 -13 4 -13 -8 0 27 -99 49 -141 10 -19 18
-36 19 -39 2 -15 104 -165 136 -202 98 -109 160 -166 274 -252 33 -25 65 -49
70 -54 6 -4 13 -9 17 -10 5 -1 34 -19 65 -39 137 -87 358 -203 548 -288 33
-14 69 -30 80 -35 11 -5 76 -32 145 -60 69 -28 134 -55 145 -60 11 -5 61 -26
110 -46 214 -86 269 -109 388 -164 49 -22 91 -40 93 -40 8 0 300 -147 351
-176 64 -37 240 -157 278 -189 82 -70 173 -168 199 -214 5 -9 13 -18 17 -21
12 -8 100 -187 104 -212 3 -12 9 -35 14 -52 15 -45 21 -82 27 -156 5 -67 16
-92 33 -74 16 16 101 192 101 208 0 9 5 16 12 16 6 0 9 3 5 6 -3 4 0 19 9 35
8 16 12 29 9 29 -3 0 2 11 11 25 8 13 13 29 10 34 -4 5 -2 12 4 16 6 4 8 11 5
16 -4 5 -2 9 2 9 5 0 9 8 9 18 1 9 5 33 9 52 4 19 9 46 10 60 2 14 4 25 4 25
1 0 4 23 6 50 3 28 7 74 10 102 12 116 6 368 -12 443 -3 14 -6 35 -7 48 0 12
-5 22 -10 22 -4 0 -6 6 -3 14 3 7 0 19 -6 25 -6 6 -8 11 -5 11 4 0 2 15 -4 33
-5 17 -11 39 -13 47 -2 13 -14 46 -32 90 -3 8 -7 21 -9 28 -1 7 -25 58 -53
113 -59 116 -152 256 -217 326 -25 26 -55 59 -68 73 -35 37 -144 132 -177 153
-16 11 -29 23 -29 28 0 5 -5 9 -10 9 -12 0 -94 52 -98 63 -2 4 -10 7 -17 7 -7
0 -15 4 -17 9 -5 12 -282 145 -358 171 -36 12 -74 25 -85 30 -67 25 -237 71
-320 86 -16 3 -43 9 -60 14 -16 5 -50 12 -75 15 -25 4 -54 9 -65 12 -46 10
-133 24 -245 39 -19 3 -46 7 -60 10 -14 3 -40 7 -59 9 -42 5 -89 12 -161 25
-30 5 -71 12 -90 15 -35 6 -117 19 -175 30 -58 10 -89 16 -147 30 -32 7 -58
11 -58 8 0 -3 -6 0 -14 6 -8 6 -18 11 -22 10 -5 -1 -11 0 -14 1 -3 1 -12 3
-21 5 -108 21 -388 140 -437 186 -12 10 -24 19 -28 19 -3 0 -21 12 -38 28 -52
44 -90 72 -97 72 -4 0 -9 -8 -11 -17z"/>
<path d="M6400 8650 c-72 -9 -158 -57 -227 -127 -35 -35 -63 -70 -63 -78 0 -8
-4 -15 -10 -15 -8 0 -33 -48 -54 -105 -10 -26 -19 -91 -18 -130 3 -128 12
-165 56 -219 28 -36 78 -64 130 -74 66 -12 255 -5 336 12 14 3 39 9 55 12 91
19 241 97 291 151 53 57 68 94 69 163 0 54 -6 77 -34 135 -38 78 -123 174
-189 212 -89 52 -224 77 -342 63z m232 -89 c65 -29 100 -64 108 -109 13 -76
-45 -142 -155 -174 -66 -19 -138 -13 -200 16 -47 22 -104 68 -106 84 0 4 -2
16 -5 27 -20 97 108 189 251 181 33 -2 81 -13 107 -25z"/>
<path d="M8972 7534 c36 -120 65 -241 73 -299 19 -135 21 -197 11 -305 -6 -61
-9 -75 -26 -140 -79 -304 -301 -538 -635 -668 -71 -27 -138 -48 -185 -57 -8
-1 -35 -6 -60 -11 -25 -4 -47 -8 -50 -9 -44 -10 -71 -16 -100 -20 -19 -3 -42
-8 -50 -10 -8 -2 -31 -6 -50 -9 -19 -3 -46 -8 -60 -10 -14 -3 -41 -7 -60 -10
-19 -3 -45 -8 -56 -10 -12 -2 -39 -7 -60 -10 -32 -5 -80 -14 -114 -21 -3 -1
-25 -5 -50 -9 -25 -5 -54 -10 -65 -13 -11 -2 -33 -7 -49 -9 -56 -11 -275 -73
-313 -90 -21 -9 -45 -18 -54 -20 -14 -3 -116 -50 -159 -73 -182 -98 -265 -151
-235 -151 11 1 38 7 59 15 22 8 43 12 48 9 4 -3 8 -1 8 3 0 7 75 30 160 49 40
8 55 12 55 14 0 1 9 3 20 5 11 1 36 5 55 9 19 3 46 8 60 11 14 2 45 7 70 10
25 3 52 8 60 10 13 3 79 10 195 21 61 5 193 14 284 19 51 3 97 8 102 11 5 3 9
0 9 -6 0 -6 5 -8 12 -3 7 4 30 8 50 9 50 2 195 14 233 19 67 9 109 16 129 20
12 3 32 7 46 9 151 25 394 122 511 205 106 75 219 184 272 261 17 25 34 47 39
48 4 2 8 7 8 12 0 4 15 35 33 67 17 33 33 64 34 69 2 5 15 43 29 84 15 41 28
100 30 130 1 30 3 55 4 55 1 0 3 41 3 92 1 50 0 90 -3 88 -3 -2 -6 32 -7 74
-2 110 -70 293 -156 421 -41 61 -111 138 -105 114z"/>
<path d="M9466 7238 c-32 -112 -40 -182 -40 -328 0 -133 4 -167 36 -300 13
-56 55 -180 80 -240 39 -90 129 -263 141 -268 4 -2 7 -10 7 -18 0 -8 5 -14 12
-14 6 0 9 -3 5 -6 -3 -3 -1 -11 4 -18 5 -6 41 -60 80 -121 40 -60 97 -148 128
-193 31 -46 61 -91 66 -100 6 -8 45 -67 88 -131 42 -64 77 -121 77 -128 0 -7
4 -13 8 -13 5 0 33 -41 63 -90 30 -50 67 -111 82 -136 50 -83 127 -233 127
-247 0 -8 7 -20 15 -27 9 -7 14 -19 11 -27 -3 -7 -1 -13 4 -13 6 0 10 -8 10
-18 0 -10 4 -22 8 -28 21 -23 68 -219 77 -319 4 -38 9 -73 11 -77 3 -5 1 -8
-5 -8 -6 0 -7 -8 -4 -17 6 -14 8 -67 3 -75 0 -2 -3 -24 -5 -49 -6 -63 -13
-103 -26 -136 -6 -15 -10 -29 -9 -31 4 -7 -14 -66 -31 -101 -10 -22 -19 -44
-19 -49 0 -4 -10 -28 -21 -52 -40 -82 -58 -130 -51 -130 8 0 112 52 172 87 46
26 160 104 181 123 9 8 27 24 40 34 29 23 149 136 144 136 -2 0 12 17 32 38
38 39 123 147 123 155 0 3 16 29 36 58 64 94 190 379 209 472 2 10 7 27 10 37
3 10 8 31 10 46 2 16 7 45 10 64 19 116 27 479 13 580 -15 102 -89 350 -114
380 -7 8 -14 24 -16 35 -1 11 -6 22 -9 25 -3 3 -20 32 -37 65 -76 142 -222
309 -382 437 -41 33 -84 67 -95 76 -11 10 -48 35 -82 57 -35 22 -63 43 -63 48
0 4 -4 7 -9 7 -6 0 -52 26 -103 58 -51 32 -100 61 -108 65 -8 4 -28 15 -45 25
-36 22 -186 105 -310 172 -33 18 -66 37 -72 42 -7 6 -13 7 -13 2 0 -5 -4 -4
-8 1 -4 6 -20 17 -37 26 -16 9 -105 59 -196 113 -92 53 -174 96 -182 96 -11 0
-21 -17 -31 -52z"/>
<path d="M6897 5264 c-1 -1 -40 -4 -87 -8 -88 -7 -117 -11 -160 -21 -14 -3
-41 -8 -60 -11 -19 -3 -38 -8 -41 -10 -3 -2 -21 -6 -40 -9 -19 -3 -99 -28
-179 -56 -80 -27 -149 -51 -155 -53 -11 -3 -70 -28 -125 -53 -73 -32 -256
-126 -281 -144 -15 -10 -30 -19 -33 -19 -5 0 -160 -96 -181 -112 -5 -5 -46
-34 -90 -65 -84 -60 -223 -170 -264 -210 -13 -13 -29 -23 -34 -23 -7 0 -7 -3
-1 -9 9 -9 49 -17 124 -27 19 -2 46 -7 60 -10 13 -3 38 -7 55 -10 35 -5 70
-12 70 -14 0 -1 12 -3 27 -5 37 -5 183 -43 233 -60 82 -29 110 -40 125 -50 8
-5 20 -10 25 -11 15 -2 111 -61 173 -107 86 -62 176 -144 354 -320 92 -91 196
-186 230 -210 64 -45 150 -89 193 -97 3 -1 19 -6 37 -11 65 -20 85 -22 178
-22 109 0 146 5 178 22 12 6 22 9 22 6 0 -3 28 9 63 27 116 61 226 194 256
313 25 99 13 261 -25 337 -47 92 -158 181 -255 204 -19 4 -41 9 -49 11 -38 10
-130 8 -173 -3 -101 -26 -177 -93 -208 -183 -17 -52 -17 -140 1 -151 6 -4 10
-9 9 -11 -7 -10 36 -61 67 -80 42 -25 68 -20 28 6 -36 23 -74 66 -68 76 2 4 0
10 -5 13 -14 9 -4 110 13 144 21 41 81 88 133 106 49 17 157 15 191 -3 12 -6
22 -9 22 -6 0 8 89 -45 118 -70 31 -26 70 -92 76 -131 9 -49 6 -169 -3 -169
-2 0 -4 -8 -6 -18 -10 -52 -58 -124 -113 -169 -19 -15 -79 -50 -92 -53 -3 -1
-14 -6 -25 -10 -26 -12 -184 -12 -210 -1 -11 5 -23 10 -27 11 -5 2 -9 3 -10 5
-2 1 -11 3 -20 5 -22 4 -116 58 -148 84 -110 90 -168 210 -164 334 2 59 24
167 34 167 3 0 12 16 19 35 21 58 121 151 204 191 40 19 84 36 97 39 139 27
251 24 368 -10 91 -27 226 -97 269 -141 8 -8 18 -14 21 -14 8 0 128 -115 152
-146 59 -74 117 -171 188 -312 45 -89 81 -163 80 -165 -6 -14 183 -388 237
-468 50 -73 222 -259 240 -259 4 0 25 -13 48 -29 135 -92 336 -134 522 -107
28 4 60 8 73 9 12 0 22 5 22 11 0 5 3 7 6 3 15 -14 186 61 297 130 37 24 69
43 72 43 9 0 65 53 61 57 -2 3 -57 -14 -123 -36 -162 -54 -256 -72 -388 -72
-100 0 -179 13 -245 38 -8 4 -18 7 -21 7 -3 1 -27 12 -54 26 -85 44 -176 148
-227 260 -30 66 -58 140 -52 140 4 0 2 6 -3 13 -9 10 -19 55 -38 162 -2 17 -7
41 -10 55 -3 14 -8 43 -11 65 -3 22 -8 49 -10 60 -2 11 -6 36 -8 55 -3 19 -8
47 -11 62 -4 15 -8 39 -10 55 -6 46 -15 96 -25 133 -11 41 -20 83 -27 125 -3
17 -9 35 -14 40 -4 6 -11 26 -14 45 -3 18 -9 38 -13 44 -4 6 -7 13 -8 16 -2
13 -18 50 -47 110 -47 99 -139 229 -209 297 -71 68 -198 162 -246 182 -18 8
-32 17 -32 22 0 5 -3 8 -7 7 -5 0 -35 11 -68 26 -79 37 -184 76 -215 82 -14 3
-38 9 -55 14 -16 5 -48 12 -70 15 -22 3 -51 7 -65 10 -65 11 -403 27 -413 19z"/>
</g>
</svg>
